<?xml version="1.0" standalone="no"?>
<!DOCTYPE svg PUBLIC "-//W3C//DTD SVG 20010904//EN"
 "http://www.w3.org/TR/2001/REC-SVG-20010904/DTD/svg10.dtd">
<svg version="1.0" xmlns="http://www.w3.org/2000/svg"
 width="512.000000pt" height="512.000000pt" viewBox="0 0 512.000000 512.000000"
 preserveAspectRatio="xMidYMid meet">

<g transform="translate(0.000000,512.000000) scale(0.100000,-0.100000)"
fill="#000000" stroke="none">
<path d="M1535 4324 c-82 -20 -209 -84 -274 -137 -100 -83 -136 -139 -299
-464 l-157 -313 -235 0 c-256 0 -281 -5 -342 -62 -66 -63 -88 -178 -49 -264
35 -77 126 -134 216 -134 37 0 32 -4 -106 -91 -160 -101 -178 -115 -222 -178
-67 -98 -67 -95 -67 -779 0 -370 4 -631 10 -651 15 -52 49 -96 102 -130 l48
-32 0 -72 c1 -112 45 -185 137 -224 51 -21 749 -19 801 3 85 35 133 111 140
222 l5 72 778 0 778 0 20 26 c28 35 27 75 -2 102 l-23 22 -1297 0 c-1271 0
-1297 0 -1316 19 -11 11 -23 35 -26 53 -3 18 -5 296 -3 618 l3 586 26 49 c15
31 44 64 75 87 l49 38 5 -242 5 -241 25 -18 c36 -26 815 -180 850 -167 14 4
91 74 170 153 l145 145 1055 0 1055 0 145 -145 c79 -79 156 -149 170 -153 19
-7 124 10 413 68 l387 77 0 -154 0 -153 -324 0 c-296 0 -326 -2 -346 -18 -31
-25 -32 -85 -2 -115 22 -22 27 -22 347 -25 l325 -3 0 -210 c0 -126 -4 -218
-10 -230 -10 -19 -30 -19 -831 -19 -559 0 -827 -3 -840 -11 -43 -23 -42 -106
1 -129 11 -6 179 -10 424 -10 l406 0 0 -51 c0 -76 18 -133 58 -180 67 -78 68
-79 485 -79 398 0 400 0 466 56 49 41 71 95 71 181 l0 72 48 32 c53 34 87 78
102 130 6 20 10 281 10 651 0 684 0 681 -67 779 -44 63 -62 77 -222 178 -120
76 -139 91 -115 91 55 0 134 30 174 66 52 47 73 106 68 187 -5 81 -37 134
-105 174 l-48 28 -245 3 -245 3 -157 312 c-101 201 -173 331 -201 366 -65 77
-141 137 -232 181 -115 56 -184 70 -357 70 -147 0 -147 0 -167 -26 -28 -35
-27 -75 2 -102 20 -19 35 -22 116 -22 60 0 102 -5 120 -14 35 -19 108 -79 133
-111 l19 -25 -1132 0 -1132 0 39 31 c22 17 65 44 98 61 111 56 130 58 839 58
438 0 655 3 668 11 43 23 42 106 -1 129 -12 6 -272 10 -697 9 -556 -1 -689 -3
-738 -15z m2306 -455 c83 -25 98 -48 285 -420 l174 -349 -1055 0 -1056 0 -24
-25 c-31 -30 -33 -77 -5 -105 20 -20 33 -20 1044 -20 l1024 0 131 -82 c72 -45
128 -85 124 -89 -5 -4 -60 -38 -123 -75 l-115 -67 -310 -78 -310 -78 -1065 0
-1065 0 -310 78 -310 78 -165 97 c-91 54 -166 99 -167 100 -1 1 37 26 85 56
l87 55 609 5 609 5 20 26 c17 24 18 31 7 63 -6 20 -20 41 -30 46 -12 6 -223
10 -564 10 l-546 0 175 349 c183 368 197 389 277 418 46 16 2513 18 2569 2z
m-3368 -684 c-37 -74 -38 -75 -77 -75 -90 0 -118 96 -41 138 11 6 50 12 87 12
l68 0 -37 -75z m4107 35 c6 -24 7 -52 2 -72 -8 -31 -11 -33 -60 -36 l-51 -3
-36 70 c-19 39 -35 73 -35 76 0 3 38 5 85 5 l84 0 11 -40z m-3905 -642 l170
-96 238 -58 c130 -32 237 -61 237 -64 0 -3 -40 -46 -90 -95 l-90 -90 -297 60
c-164 32 -317 63 -340 68 l-43 9 0 195 0 195 23 -14 c12 -8 99 -58 192 -110z
m3982 -265 c-2 -2 -156 -34 -341 -71 l-336 -67 -92 92 c-51 51 -90 94 -88 96
3 2 117 32 254 67 l249 63 176 102 176 101 3 -189 c1 -105 1 -192 -1 -194z"/>
<path d="M1823 2156 c-103 -33 -195 -114 -241 -214 -25 -55 -26 -64 -30 -277
-3 -209 -3 -222 16 -245 l20 -25 972 0 972 0 20 25 c18 23 19 37 16 245 l-3
220 -32 66 c-39 79 -111 150 -191 187 l-57 27 -710 2 c-567 2 -718 -1 -752
-11z"/>
<path d="M332 1840 c-28 -26 -29 -79 -3 -111 l19 -24 334 -3 c359 -2 371 -1
395 50 16 31 1 83 -27 98 -11 6 -156 10 -357 10 -328 0 -340 -1 -361 -20z"/>
</g>
</svg>
