<?xml version="1.0" standalone="no"?>
<!DOCTYPE svg PUBLIC "-//W3C//DTD SVG 20010904//EN"
 "http://www.w3.org/TR/2001/REC-SVG-20010904/DTD/svg10.dtd">
<svg version="1.0" xmlns="http://www.w3.org/2000/svg"
 width="512.000000pt" height="512.000000pt" viewBox="0 0 512.000000 512.000000"
 preserveAspectRatio="xMidYMid meet">

<g transform="translate(0.000000,512.000000) scale(0.100000,-0.100000)"
fill="#000000" stroke="none">
<path d="M866 5029 c-62 -15 -153 -68 -197 -116 -22 -24 -55 -74 -72 -111
l-32 -67 -3 -989 -2 -990 -145 -147 c-81 -82 -164 -178 -191 -219 -88 -136
-132 -277 -140 -445 -5 -103 -1 -138 65 -535 39 -234 81 -463 92 -510 12 -47
52 -164 90 -261 l69 -175 0 -192 0 -192 560 0 560 0 0 193 0 193 34 85 c19 46
40 103 46 126 l13 43 921 2 921 3 67 32 c93 44 151 100 196 191 l37 76 3 792
c3 925 -8 849 111 778 122 -71 277 -114 417 -114 96 0 203 24 414 95 168 56
204 65 267 65 l73 0 0 400 0 400 -66 0 c-67 0 -67 0 -156 66 l-89 67 124 126
c157 160 181 205 182 336 0 82 -3 96 -32 156 -39 79 -102 140 -181 177 -48 23
-71 27 -147 27 -142 0 -167 -16 -420 -267 l-211 -208 -141 0 -142 0 -3 408 -3
407 -32 67 c-44 93 -100 151 -191 196 l-76 37 -1275 2 c-749 1 -1292 -3 -1315
-8z m2563 -165 c37 -10 66 -29 96 -59 73 -72 75 -89 75 -536 l0 -387 -24 -6
c-13 -3 -47 -22 -76 -41 -29 -19 -54 -35 -56 -35 -2 0 -4 110 -4 244 0 236 -1
244 -23 277 -12 18 -38 44 -56 56 l-34 23 -1167 0 -1167 0 -34 -23 c-18 -12
-44 -38 -56 -56 l-23 -34 0 -1244 c0 -1364 -4 -1273 60 -1326 l30 -26 -40
-101 c-64 -160 -95 -217 -125 -224 -29 -8 -60 6 -75 34 -7 12 -10 553 -10
1638 0 1821 -6 1687 75 1767 78 78 -9 74 1361 74 1080 1 1226 -1 1273 -15z
m-149 -926 l0 -302 -174 -176 c-101 -102 -183 -194 -197 -220 -19 -37 -24 -61
-24 -130 0 -95 19 -147 76 -209 l31 -34 -91 -91 -91 -91 -85 -213 c-66 -163
-85 -223 -85 -259 1 -86 53 -164 132 -197 70 -29 114 -21 305 55 98 39 184 73
191 76 9 4 12 -30 12 -151 l0 -156 -825 0 -825 0 0 28 c0 79 -22 254 -35 286
-21 50 -80 113 -129 138 -49 25 -137 34 -192 19 -54 -15 -117 -61 -151 -112
-15 -23 -39 -87 -54 -143 l-27 -101 -1 1143 -1 1142 1120 0 1120 0 0 -302z
m1475 283 c49 -22 99 -77 115 -126 15 -47 7 -117 -20 -159 -10 -17 -189 -201
-397 -409 l-379 -378 -114 91 c-63 50 -136 103 -162 118 -27 15 -48 29 -48 32
0 3 186 191 413 417 318 318 420 414 447 421 54 16 101 13 145 -7z m-1029
-620 l-158 -159 -82 -4 c-122 -7 -197 -52 -251 -150 -25 -45 -30 -65 -31 -132
l-2 -78 -45 -46 c-52 -52 -67 -51 -97 7 -24 47 -25 80 -6 124 8 18 126 143
262 278 299 297 329 316 499 318 l70 1 -159 -159z m1038 -254 c49 -37 95 -67
103 -67 10 0 13 -45 13 -238 l0 -237 -217 -72 c-251 -83 -325 -98 -431 -89
-139 13 -201 41 -529 237 -168 101 -312 193 -320 206 -41 63 -17 147 52 180
30 15 46 15 109 6 109 -15 183 -55 354 -191 l153 -122 215 0 214 0 0 80 0 80
-102 0 -103 0 170 170 169 169 31 -23 c16 -12 70 -52 119 -89z m-1261 -534
l148 -87 -186 -186 -185 -185 -142 142 -143 143 150 150 149 149 31 -19 c16
-11 97 -59 178 -107z m-2911 -1500 c69 -105 185 -140 294 -89 62 29 91 65 142
177 67 145 112 276 168 494 63 242 73 260 150 260 38 0 50 -5 74 -31 33 -38
30 -14 71 -559 29 -376 31 -432 21 -535 -14 -137 -39 -241 -89 -372 l-38 -98
-425 0 -425 0 -58 148 c-32 81 -67 181 -77 222 -28 111 -160 913 -160 973 0
198 74 370 229 530 l86 89 5 -584 5 -584 27 -41z m2530 956 c-4 -4 -65 -31
-136 -59 -138 -54 -166 -56 -180 -12 -6 16 76 245 101 285 3 5 54 -40 114 -99
60 -60 105 -112 101 -115z m463 -1217 c-11 -38 -29 -66 -60 -97 -78 -78 -35
-75 -1008 -75 l-859 0 7 38 c5 20 11 114 15 207 4 94 7 161 8 150 4 -35 60
-121 103 -159 79 -67 121 -76 369 -76 200 0 224 2 277 22 116 43 203 168 203
292 0 61 -25 107 -79 143 -34 23 -36 23 -401 23 -365 0 -367 0 -401 -23 -52
-35 -79 -82 -80 -141 -2 -51 -26 200 -28 282 l-1 42 839 0 838 0 34 23 c18 12
44 38 56 56 22 33 23 41 23 280 l0 246 78 78 77 77 3 -667 c2 -580 0 -674 -13
-721z m-1109 276 c-8 -43 -48 -92 -89 -112 -51 -24 -403 -24 -454 0 -41 20
-81 69 -89 112 l-6 32 322 0 323 0 -7 -32z m-1116 -1008 l0 -80 -400 0 -400 0
0 80 0 80 400 0 400 0 0 -80z"/>
<path d="M1840 4640 l0 -80 320 0 320 0 0 80 0 80 -320 0 -320 0 0 -80z"/>
<path d="M2985 4695 c-16 -15 -25 -36 -25 -55 0 -19 9 -40 25 -55 15 -16 36
-25 55 -25 19 0 40 9 55 25 16 15 25 36 25 55 0 19 -9 40 -25 55 -15 16 -36
25 -55 25 -19 0 -40 -9 -55 -25z"/>
<path d="M3305 4695 c-16 -15 -25 -36 -25 -55 0 -19 9 -40 25 -55 15 -16 36
-25 55 -25 19 0 40 9 55 25 16 15 25 36 25 55 0 19 -9 40 -25 55 -15 16 -36
25 -55 25 -19 0 -40 -9 -55 -25z"/>
<path d="M1200 3840 l0 -240 960 0 960 0 0 240 0 240 -960 0 -960 0 0 -240z
m1760 0 l0 -80 -800 0 -800 0 0 80 0 80 800 0 800 0 0 -80z"/>
<path d="M1680 3360 l0 -80 520 0 520 0 0 80 0 80 -520 0 -520 0 0 -80z"/>
<path d="M1680 3040 l0 -80 360 0 360 0 0 80 0 80 -360 0 -360 0 0 -80z"/>
<path d="M2560 3040 l0 -80 80 0 80 0 0 80 0 80 -80 0 -80 0 0 -80z"/>
<path d="M1680 2720 l0 -80 520 0 520 0 0 80 0 80 -520 0 -520 0 0 -80z"/>
<path d="M1680 2400 l0 -80 440 0 440 0 0 80 0 80 -440 0 -440 0 0 -80z"/>
<path d="M1680 2080 l0 -80 440 0 440 0 0 80 0 80 -440 0 -440 0 0 -80z"/>
</g>
</svg>
