<?xml version="1.0" standalone="no"?>
<!DOCTYPE svg PUBLIC "-//W3C//DTD SVG 20010904//EN"
 "http://www.w3.org/TR/2001/REC-SVG-20010904/DTD/svg10.dtd">
<svg version="1.0" xmlns="http://www.w3.org/2000/svg"
 width="512.000000pt" height="512.000000pt" viewBox="0 0 512.000000 512.000000"
 preserveAspectRatio="xMidYMid meet">

<g transform="translate(0.000000,512.000000) scale(0.100000,-0.100000)"
fill="#000000" stroke="none">
<path d="M1041 4857 c-84 -40 -159 -81 -166 -92 -10 -16 -9 -54 5 -197 10 -97
21 -181 24 -186 12 -20 234 -142 257 -142 13 0 51 18 84 40 33 22 63 40 67 40
4 0 4 -38 1 -83 -7 -96 -4 -100 91 -151 l55 -30 76 47 c41 26 77 47 79 47 1 0
2 -42 2 -92 l-1 -93 252 -145 252 -145 16 -47 c9 -25 21 -51 28 -56 7 -6 84
-52 172 -102 88 -51 162 -94 164 -96 2 -2 -8 -30 -23 -63 -17 -38 -26 -76 -26
-108 l0 -49 -337 -12 c-488 -18 -716 -41 -830 -84 -86 -32 -122 -78 -303 -393
-127 -220 -173 -291 -189 -293 -19 -3 -21 1 -21 40 0 57 -34 123 -83 162 l-39
31 -223 0 -223 0 -44 -30 c-65 -45 -98 -117 -98 -214 0 -121 49 -202 145 -242
17 -7 100 -15 193 -18 l163 -6 -83 -49 c-144 -86 -223 -188 -247 -320 -15 -79
-15 -907 0 -959 13 -47 58 -100 104 -121 l35 -17 0 -127 c0 -145 12 -184 75
-245 67 -65 87 -68 386 -65 l266 3 49 30 c30 19 60 49 79 79 29 47 30 56 35
185 l5 136 1295 0 1295 0 5 -136 c5 -129 6 -138 35 -185 19 -30 49 -60 79 -79
l49 -30 266 -3 c299 -3 319 0 386 65 63 61 75 100 75 245 l0 127 35 17 c46 21
91 74 104 121 14 50 15 881 1 954 -26 137 -104 238 -248 324 l-83 50 163 6
c90 3 176 12 193 18 96 39 145 121 145 242 0 96 -33 168 -99 214 l-43 30 -223
0 -223 0 -39 -31 c-49 -39 -83 -105 -83 -162 0 -39 -2 -43 -21 -40 -16 2 -59
69 -180 278 -87 151 -159 279 -159 284 0 5 55 104 122 220 134 231 154 284
138 359 -23 110 -47 131 -345 302 -132 76 -323 187 -425 245 -102 59 -204 117
-227 129 -119 60 -251 23 -324 -90 l-31 -49 -32 19 c-17 10 -95 56 -174 101
l-143 82 -52 -10 -51 -10 -451 260 c-247 144 -519 301 -603 349 -84 49 -163
89 -175 88 -12 0 -91 -33 -176 -72z m790 -387 l592 -342 57 7 58 7 151 -88
c83 -48 151 -91 151 -96 0 -8 -247 -441 -274 -480 -11 -15 -28 -7 -166 72
-154 89 -155 90 -175 141 l-20 51 -245 142 -245 141 4 123 c4 179 -13 189
-160 92 -138 -90 -142 -88 -140 83 2 125 2 126 -24 143 -25 16 -27 16 -108
-36 -143 -92 -121 -88 -207 -39 -41 24 -78 47 -81 52 -10 14 -30 260 -22 268
19 19 230 109 245 105 10 -2 284 -158 609 -346z m1896 -986 c54 -31 100 -58
102 -60 3 -3 -295 -523 -309 -537 -8 -9 -210 102 -210 116 0 13 304 537 312
537 3 0 51 -25 105 -56z m-1208 -458 c15 -14 184 -115 376 -226 193 -111 400
-231 462 -266 138 -80 193 -94 276 -70 80 23 125 71 217 233 41 73 78 129 82
125 3 -4 81 -137 173 -297 92 -159 172 -296 177 -302 8 -10 -336 -13 -1717
-13 -1378 0 -1726 3 -1722 13 15 35 378 655 402 684 15 20 46 43 69 53 98 44
560 82 1060 88 114 2 121 1 145 -22z m1899 -962 c26 -20 95 -65 153 -100 115
-69 160 -112 193 -183 20 -44 21 -62 24 -519 l3 -473 -30 -29 -29 -30 -1086 0
-1086 0 0 60 0 60 279 0 c306 0 311 1 311 59 0 50 -3 51 -307 51 l-283 0 0 70
0 70 285 0 c311 0 337 4 371 55 19 29 114 365 114 403 0 40 -28 91 -62 112
-31 19 -50 20 -370 20 l-338 0 0 205 0 205 906 0 905 0 47 -36z m-3349 -475
c212 -33 391 -66 398 -72 6 -7 22 -54 36 -106 l26 -93 -62 6 c-34 3 -152 13
-262 21 -454 35 -544 43 -554 50 -12 7 -16 237 -4 248 10 11 16 10 422 -54z"/>
<path d="M4230 1725 c-113 -18 -297 -48 -409 -66 -258 -41 -257 -40 -301 -204
-17 -60 -30 -124 -30 -141 0 -40 33 -82 72 -92 18 -4 209 6 471 26 474 36 490
39 531 95 18 25 21 45 24 165 3 150 -7 187 -58 223 -42 30 -87 29 -300 -6z
m248 -199 c1 -70 -1 -123 -7 -129 -7 -7 -751 -73 -868 -77 -13 0 32 178 50
197 13 13 744 133 792 130 l30 -2 3 -119z"/>
<path d="M3562 948 c-18 -18 -14 -63 6 -81 17 -15 66 -17 500 -17 469 0 483 1
502 20 24 24 25 38 4 68 l-15 22 -493 0 c-369 0 -495 -3 -504 -12z"/>
</g>
</svg>
