<?xml version="1.0" standalone="no"?>
<!DOCTYPE svg PUBLIC "-//W3C//DTD SVG 20010904//EN"
 "http://www.w3.org/TR/2001/REC-SVG-20010904/DTD/svg10.dtd">
<svg version="1.0" xmlns="http://www.w3.org/2000/svg"
 width="512.000000pt" height="512.000000pt" viewBox="0 0 512.000000 512.000000"
 preserveAspectRatio="xMidYMid meet">

<g transform="translate(0.000000,512.000000) scale(0.100000,-0.100000)"
fill="#000000" stroke="none">
<path d="M1713 5106 c-178 -44 -327 -196 -364 -374 -15 -75 -6 -193 20 -262
12 -30 21 -55 21 -56 0 -1 -23 -4 -51 -7 -98 -12 -192 -70 -250 -153 -35 -51
-189 -468 -189 -512 0 -33 38 -72 71 -72 44 0 68 42 147 262 44 120 91 233
105 251 33 43 104 77 161 77 30 0 102 -20 211 -60 198 -71 215 -80 265 -130
61 -61 92 -132 98 -221 4 -67 0 -86 -33 -185 -21 -60 -39 -111 -41 -113 -13
-15 -36 39 -69 165 -40 152 -57 184 -101 184 -36 0 -54 -11 -69 -40 -14 -26
-11 -41 26 -186 22 -87 45 -168 51 -179 6 -11 131 -142 279 -291 148 -148 269
-275 269 -280 0 -5 -31 -40 -69 -78 l-69 -68 -288 292 c-158 160 -294 300
-302 311 -7 10 -36 108 -63 216 -41 161 -55 202 -75 221 -40 36 -85 28 -110
-19 -14 -28 -12 -42 37 -232 28 -111 61 -220 72 -242 10 -22 79 -101 153 -175
l133 -135 -66 -182 -66 -182 -51 19 c-28 11 -206 76 -395 144 -189 69 -345
127 -348 129 -2 3 33 105 78 228 45 123 81 237 81 254 -1 56 -80 87 -120 47
-10 -10 -62 -138 -115 -285 l-97 -268 0 -1410 c0 -1575 -6 -1445 70 -1488 37
-20 49 -21 514 -21 406 0 482 2 513 15 89 37 113 87 113 234 0 120 -8 152 -48
194 -39 42 -75 57 -147 64 l-65 6 6 71 c3 39 34 499 69 1021 l63 950 62 165
c33 90 62 166 64 167 2 2 97 -92 212 -208 234 -237 266 -259 369 -259 57 0
110 18 158 52 14 10 20 10 35 0 47 -34 100 -52 157 -52 103 0 135 22 369 259
115 116 210 210 212 208 2 -1 31 -77 64 -167 l62 -165 63 -950 c35 -522 66
-982 69 -1021 l6 -71 -65 -6 c-72 -7 -108 -22 -147 -64 -40 -42 -48 -74 -48
-194 0 -147 24 -197 113 -234 31 -13 107 -15 513 -15 465 0 477 1 514 21 75
42 70 -35 70 1042 l0 966 -26 20 c-36 28 -60 26 -95 -8 l-29 -29 0 -751 0
-751 -159 0 -159 0 -6 73 c-4 39 -24 377 -46 749 -23 406 -43 685 -50 698 -26
48 -105 45 -128 -5 -8 -17 0 -200 28 -686 21 -365 41 -701 45 -747 l6 -82 -90
0 -90 0 -5 52 c-11 95 -129 1938 -125 1942 2 2 177 67 389 143 l385 140 5
-239 c5 -237 5 -240 29 -259 30 -25 76 -24 101 1 19 19 20 33 20 325 l0 305
-126 347 c-69 192 -132 358 -139 369 -30 47 -118 32 -131 -22 -5 -19 25 -112
110 -346 64 -176 115 -322 113 -325 -2 -2 -159 -60 -348 -129 -189 -69 -367
-133 -395 -144 l-51 -19 -66 182 -66 182 138 140 c159 162 153 150 225 432 44
171 46 185 32 212 -25 47 -70 55 -110 19 -20 -19 -34 -60 -75 -221 -27 -108
-56 -206 -64 -217 -7 -11 -143 -150 -301 -311 l-288 -291 -69 68 c-38 38 -69
73 -69 78 0 5 121 132 269 280 148 149 273 280 279 291 6 12 29 92 51 179 37
145 39 161 26 186 -15 30 -33 40 -69 40 -44 0 -61 -32 -101 -184 -33 -126 -56
-180 -69 -165 -2 2 -20 53 -41 113 -33 98 -37 118 -33 186 4 61 11 87 38 139
31 58 84 112 137 140 12 6 96 38 188 71 185 67 229 72 301 39 63 -30 89 -70
144 -220 27 -72 56 -139 66 -150 38 -42 124 -11 124 46 0 37 -98 294 -131 341
-56 81 -151 139 -248 151 -28 3 -51 6 -51 7 0 1 9 26 21 56 26 68 35 188 20
259 -48 223 -252 391 -476 391 -215 0 -415 -156 -470 -365 -44 -170 9 -351
139 -473 34 -31 87 -69 118 -84 l56 -28 -44 -65 c-57 -86 -84 -174 -84 -279 0
-72 6 -97 51 -226 28 -80 52 -154 53 -166 1 -15 -79 -102 -276 -303 l-278
-281 -277 281 c-198 201 -278 288 -277 303 1 12 25 86 53 166 45 129 51 154
51 226 0 105 -27 193 -84 279 l-44 65 56 28 c159 77 272 257 272 432 0 314
-295 549 -597 476z m262 -175 c70 -35 120 -86 157 -160 18 -37 23 -63 23 -136
0 -79 -4 -97 -28 -147 -35 -72 -110 -140 -185 -168 -72 -28 -183 -24 -254 7
-148 66 -229 241 -184 395 60 207 278 304 471 209z m1469 0 c74 -36 118 -82
155 -161 22 -46 26 -69 26 -140 0 -72 -4 -93 -28 -141 -32 -67 -100 -132 -165
-162 -71 -31 -182 -35 -254 -7 -122 45 -206 159 -216 289 -18 261 247 438 482
322z m-1010 -2171 c39 -42 46 -55 46 -90 0 -58 -42 -100 -100 -100 -36 0 -48
6 -93 50 l-52 49 70 71 c38 38 72 70 76 70 3 0 27 -22 53 -50z m381 -20 l70
-71 -52 -49 c-45 -44 -57 -50 -93 -50 -58 0 -100 42 -100 100 0 35 7 48 46 90
26 28 50 50 53 50 4 0 38 -32 76 -70z m-1602 -123 c291 -106 307 -113 307
-136 0 -39 -119 -1859 -126 -1918 l-5 -53 -90 0 -90 0 6 82 c4 46 24 382 45
747 28 483 36 670 28 687 -23 49 -102 52 -128 4 -7 -13 -29 -317 -55 -768 -25
-411 -45 -748 -45 -749 0 -2 -72 -3 -160 -3 l-160 0 0 1140 0 1140 83 -30 c45
-17 220 -81 390 -143z m77 -2277 c14 -22 12 -164 -2 -178 -9 -9 -85 -12 -280
-12 l-268 0 0 105 0 106 270 -3 c228 -3 272 -5 280 -18z m341 10 c17 -9 19
-22 19 -99 0 -72 -3 -90 -16 -95 -9 -3 -55 -6 -102 -6 l-87 0 3 105 3 105 80
0 c44 0 89 -5 100 -10z m2041 -95 l3 -105 -87 0 c-47 0 -93 3 -102 6 -13 5
-16 23 -16 95 0 107 2 108 117 109 l82 0 3 -105z m708 0 l0 -105 -268 0 c-195
0 -271 3 -280 12 -13 13 -17 156 -4 174 13 21 37 22 295 23 l257 1 0 -105z"/>
</g>
</svg>
